<svg xmlns="http://www.w3.org/2000/svg"  viewBox="0 0 443.583 443.583" width="58px" height="58px"><path fill="#fe4f60" d="M443.58,283.433c0.23,16.45-13.07,30.36-30,30.36H295.15c-14.932,0-27.682-11.014-29.72-25.9	c-1.467-10.571,2.818,20.412-23.73-172c-2.48-18.03,11.52-34.1,29.72-34.1h118.43c14.99,0,27.68,11.06,29.72,25.9	C429.84,182.07,443.557,280.626,443.58,283.433z"/><path fill="#ea475f" d="M443.58,283.433c0.23,16.45-13.07,30.36-30,30.36H295.15c-14.933,0-27.682-11.015-29.72-25.9	c-0.945-6.81-3.293-23.897-23.73-172c-2.48-18.03,11.52-34.1,29.72-34.1h78.19c0.271,1.964,20.624,149.639,24.24,175.74	c2.03,14.87,14.77,25.9,29.72,25.9H443.58z"/><path fill="#42434d" d="M331.13,236.663c-0.108,0.036-49.799,72.564-50.4,73.44c-8.082-4.426-13.972-12.51-15.3-22.21	c-1.456-10.491,2.631,19.059-23.73-172c-2.48-18.03,11.52-34.1,29.72-34.1h46.112c8.241,59.725,4.475,32.423,18.16,131.63	C336.812,221.523,335.26,230.433,331.13,236.663z"/><path fill="#fe4f60" d="M305.28,249.793H32c-10.581-76.745-7.353-53.291-32-232h282.11c15.98,0,29.52,11.79,31.7,27.63	c0.706,5.157,23.155,167.89,23.17,168C339.656,232.773,324.573,249.793,305.28,249.793z"/><path fill="#ff6d7a" d="M276.69,46.01C98.007,46.01,73.931,97.7,63.721,176.875c-1.285,9.967-9.296,17.946-19.319,18.68	c-11.099,0.814-20.861-7.114-22.375-18.078C15.144,127.608,19.813,161.449,0,17.793c24.537,0,282.441-0.019,283.601,0.034	c17.949,0.828,17.218,27.801-0.748,28.085L276.69,46.01z"/><path fill="#caf1fc" d="M188.441,183.893c-10.582,11.12-25.796,17.9-43.516,17.9c-37.56,0-72.157-30.44-77.286-68	s21.154-68,58.714-68c17.72,0,34.786,6.78,48.404,17.9c-34.175-9.194-63.839,15.533-59.118,50.1	C120.335,168.179,156.603,193.135,188.441,183.893z"/><path fill="#caf1fc" d="M174.973,119.103l-1.182,3.311l-3.723,0.553c-6.762,1.002-9.232,9.515-4.043,13.979l4.173,3.589	l-0.167,4.769c-0.218,6.229,6.492,10.323,11.938,7.24l3.5-1.982l4.493,2.204c6.283,3.081,13.228-2.852,11.168-9.538l-1.325-4.302	l2.427-2.729c4.216-4.739,1.491-12.332-4.849-13.236l-5.147-0.733l-2.96-4.698C185.734,111.908,177.22,112.807,174.973,119.103z"/><path fill="#42434d" d="M56.408,296.576c-0.601-4.377-4.635-7.438-9.015-6.836c-4.377,0.603-7.438,4.639-6.835,9.016	l16.518,120.127c0.551,4.008,3.98,6.911,7.915,6.911c4.865,0,8.596-4.288,7.936-9.091L56.408,296.576z"/></svg>